<svg viewBox="-6.4 -6.4 76.80 76.80" xmlns="http://www.w3.org/2000/svg" xmlns:xlink="http://www.w3.org/1999/xlink" aria-hidden="true" role="img" class="iconify iconify--emojione" preserveAspectRatio="xMidYMid meet" fill="#000000"><g id="SVGRepo_bgCarrier" stroke-width="0"><path transform="translate(-6.4, -6.4), scale(2.4)" d="M16,28.06299374146121C18.037733997153722,28.00382778296168,20.060667202661566,30.132467227632752,21.92125592000265,29.299358544024C23.78328460057463,28.46560509359464,23.445766237979402,25.437306536018408,24.9476785757264,24.05652597666119C26.655836546968217,22.48613384409515,29.981868273399243,22.947228818257425,31.063519382367318,20.894434141917287C32.07782565270503,18.96944881655288,30.230161909454267,16.691888211017012,29.966261461480904,14.532086769570563C29.706719359439656,12.407954694731071,30.581553006689447,10.052314274964562,29.512260211497157,8.19869292953185C28.44299246271255,6.345115002100377,26.070306394813247,5.771448510944001,24.257046515133084,4.63515046008132C22.5424681302016,3.560692188169086,21.060023438356648,1.8892273956975494,19.051588502313766,1.6434048502764274C17.049671023126113,1.3983800094784793,15.241143283814083,2.7492122414221285,13.299249977659876,3.2939701267240302C11.466631832584781,3.8080731323387598,9.332464203867561,3.5889869943617807,7.851986102754161,4.785220984082956C6.372475082695261,5.9806735672927225,6.348124841760668,8.239964801486654,5.253119257147585,9.795285510165346C4.040776893310736,11.517268677173751,1.5179052159515947,12.373979411855437,1.061742967622676,14.429925918409857C0.6157552268017461,16.440015400969866,2.0494960070435493,18.386177179970932,2.934543615316768,20.24522411965556C3.7525927772826706,21.963540486874997,4.9317445748778965,23.416282238111275,6.067073296378984,24.943647375654365C7.290047994136196,26.58892321698247,7.967800330163593,29.03349495107763,9.923647495427705,29.64771117647433C11.942748298263117,30.281791638300987,13.884567791341347,28.124415680949333,16,28.06299374146121" fill="#7ed0ec" strokewidth="0"></path></g><g id="SVGRepo_tracerCarrier" stroke-linecap="round" stroke-linejoin="round"></g><g id="SVGRepo_iconCarrier"><circle cx="32" cy="32" r="30" fill="#63d2ee"></circle><path d="M23 21.8V16h20v4.5c-1.7 1.7-3.3 4.2-5 7.4c-1.7 3.2-3 6.7-3.9 10.3c-.9 3.6-1.3 6.9-1.3 9.7h-5.6c.1-4.5 1-9.1 2.6-13.7c1.6-4.7 3.8-8.8 6.6-12.5l-13.4.1" fill="#ffffff"></path></g></svg>